<?xml version="1.0" encoding="UTF-8"?>
<svg id="Calque_2" data-name="Calque 2" xmlns="http://www.w3.org/2000/svg" viewBox="0 0 391.31 391.53">
  <g id="Calque_1-2" data-name="Calque 1">
    <g>
      <path d="M189.48,391.53c5.13-14.33,11.21-28.41,15.21-43.05,9.48-34.65,18.09-69.53,26.84-104.37,5.01-19.95,9.1-40.14,16.84-59.3,3.85-9.53,8.88-18.32,16.71-25.22,.76-.67,1.56-1.31,2.37-1.92,.18-.13,.47-.12,1.38-.31,3.85,7.78,8,15.61,11.66,23.66,13.64,30.02,22.31,61.55,28.19,93.91,4.3,23.69,6.98,47.56,7.76,71.64,.08,2.46-.69,3.83-2.64,5.31-25.44,19.22-53.92,31.38-85.23,36.98-6.86,1.23-13.83,1.82-20.74,2.7h-18.35Z"/>
      <path d="M391.31,210.31c-1.03,7.01-1.82,14.07-3.12,21.02-7.21,38.52-24.5,71.91-51.52,100.27-.25,.26-.62,.39-1.33,.81-5.04-64.44-17.75-126.61-49.56-184.54,7.23-1.39,14.13-2.77,21.04-4.04,16.97-3.13,30.09,5.04,42.37,14.95,15.65,12.62,28.38,28.08,41.1,43.51,.32,.39,.68,.75,1.02,1.13v6.88Z"/>
      <path d="M232.04,109.47c8.81,10.23,17.48,20.29,24.8,28.78-4.43,5.35-8.18,9.84-11.88,14.37-12.29,15.04-18.62,32.9-23.31,51.31-9.94,38.99-19.16,78.16-29.17,117.14-5.69,22.13-12.43,43.99-22.08,64.81-.53,1.14-1.04,2.3-1.93,4.25-9.2-2.15-18.54-3.91-27.62-6.54-34.39-9.96-63.73-28.27-88.2-54.36-.85-.91-1.3-2.72-1.13-4,2.97-21.53,11.58-40.99,22.59-59.44,23.76-39.82,55.43-72.82,89.85-103.38,20.68-18.36,42.48-35.33,65.24-51.04,.63-.43,1.26-.85,2.84-1.89Z"/>
      <path d="M216.74,95.82c-11.43,8.55-22.49,16.49-33.19,24.88-41.97,32.91-80.49,69.3-111.75,112.81-15.9,22.12-28.92,45.76-36.09,72.28-.09,.34-.33,.65-.83,1.57-2.5-3.86-4.92-7.33-7.07-10.96-14.28-24.17-23.25-50.09-26.48-78.07-2.88-24.86-1.07-49.27,5.49-73.36,.43-1.57,1.82-3.33,3.26-4.1,16.35-8.84,34.02-13.95,52.11-17.69,18.53-3.83,37.15-7.21,55.64-11.18,25.77-5.54,48.7-17.37,70.02-32.58,4.63-3.31,4.65-3.37,9.1,.23,6.53,5.27,13.01,10.6,19.81,16.16Z"/>
      <path d="M175.77,64.1c-12.32,8.76-24.94,15.96-38.48,21.65-15.14,6.36-31.2,8.96-47.15,11.99-24.08,4.57-48.17,9.05-71.23,17.72-.33,.12-.72,.09-1.88,.23,2.75-5.42,5.09-10.53,7.84-15.4,15.4-27.31,36.14-49.75,62.13-67.28,4.53-3.05,9.25-5.84,14.04-8.48,1.08-.59,2.96-.5,4.16,.01,24.7,10.7,47.92,24.05,70.57,39.56Z"/>
      <path d="M248.93,98.49c19.14-12,39.09-23.59,62.27-28.01,9.1-1.73,18.27-3.09,27.35-4.91,2.49-.5,3.69,.38,5.11,2.05,17.93,20.94,31.29,44.45,39.09,70.92,3.07,10.42,5.09,21.15,7.59,31.74l-1.12,.52c-.88-.95-1.78-1.88-2.65-2.84-11.57-12.78-23.79-24.83-38.59-33.91-11.76-7.21-24.48-11.76-38.37-9.99-10.52,1.34-20.83,4.26-31.27,6.33-1.31,.26-3.44,.14-4.12-.68-8.51-10.27-16.82-20.7-25.29-31.23Z"/>
      <path d="M324.54,48.47c-34.4,3.82-63.36,18.46-90.7,36.59-8.69-7.32-17.04-14.36-24.87-20.95,7.24-8.95,15.43-17.13,21.23-26.76,5.97-9.92,4.45-21.88,4.13-33.52,33.76,7,63.3,21.55,90.21,44.65Z"/>
      <path d="M127.64,12.18C155.26,1.89,184.28-1.93,214.41,.91c.84,8.81,1.73,17.51-.74,25.89-1.06,3.57-3.86,6.79-6.38,9.73-4.55,5.3-9.49,10.27-13.8,14.87-22.67-13.5-44.33-26.4-65.85-39.21Z"/>
    </g>
  </g>
</svg>