<?xml version="1.0" encoding="UTF-8"?>
<svg id="Calque_2" data-name="Calque 2" xmlns="http://www.w3.org/2000/svg" viewBox="0 0 383.33 383.43">
<defs>
    <style>
      .cls-1 {
        fill: hsl(218, 51%, 28%);
      }
    </style>
  </defs>  
  
  <g id="Calque_1-2" data-name="Calque 1">
    <path class="cls-1" d="M177.48,0c9.23,0,18.46,0,27.7,0,4.43,.56,8.87,1.06,13.29,1.71,31.74,4.63,60.78,16.1,86.49,35.31,40.78,30.46,66.14,70.72,75.39,120.9,1.24,6.7,2,13.49,2.98,20.24v26.95c-.25,1.2-.57,2.39-.73,3.6-.85,6.29-1.31,12.65-2.55,18.86-9.45,47.2-32.83,86.12-70.99,115.45-46.93,36.07-99.96,47.91-157.83,35.87-45.25-9.42-82.23-33.02-110.59-69.45C7.46,266.82-5.16,218.25,1.89,164.86c4.84-36.68,19.68-69.25,43.83-97.35C75.61,32.71,113.13,11,158.4,2.92,164.73,1.79,171.12,.97,177.48,0Zm95.15,244.45c-1.07,.46-1.73,.72-2.37,1.02-15.24,7.2-30.32,7.1-45.01-1.36-3-1.72-5.22-1.66-8.23-.15-17.41,8.76-34.88,9.11-52.14-.47-2.08-1.15-3.47-.93-5.38,.22-10.83,6.49-22.46,8.56-34.82,5.68-4.63-1.08-9.2-2.48-14.27-3.86v27.24h-14.36c.73,8.22,4.95,13.01,12.33,14.15,2.45,.38,4.96,.49,7.44,.49,43.16,.03,86.31,.02,129.47,.02,8.98,0,17.96,.07,26.94-.02,8.88-.09,14.8-5.9,15.12-15.02h-14.72v-27.95Zm-51.35-12.15c.58,.42,1.22,.81,1.78,1.29,13.27,11.29,27.93,11.58,43.4,5.5,2.93-1.15,5.54-2.91,5.89-6.17,.36-3.42,.5-7.06-.27-10.36-2.39-10.26-10.67-16.19-22.12-16.22-24.18-.06-48.36-.03-72.54-.01-15.33,.01-30.66-.14-45.99,.18-10.58,.22-18.32,7.14-20.45,17.41-1.57,7.55-.1,12.2,4.9,14.62,8.9,4.3,18.21,5.52,27.97,3.59,7.15-1.41,13.1-4.97,18.28-9.82,15.88,13.75,42.51,14.47,59.17,0Zm-14.81-34.04c0-1.72,0-3.07,0-4.42,0-11.72,.03-23.45-.01-35.17,0-2.42,.41-4.2,3.12-5.18,4.24-1.53,5.76-4.83,4.59-8.88-1.08-3.73-4.6-5.81-8.82-4.79-10.14,2.44-20.25,5.04-30.36,7.64-3.25,.84-5.12,3.09-5.35,6.42-.23,3.3,1.18,5.97,4.37,7.07,2.56,.89,2.93,2.54,2.91,4.86-.07,9.48-.03,18.96-.03,28.44,0,1.31,0,2.62,0,4.02h29.58Zm-8.86-60.03c4.86-2.33,7.59-5.44,8.36-10.01,1.37-8.15-1.49-15.2-6.14-21.65-3.05-4.23-6.69-7.85-11.66-10.42-3.51,8.27-6.91,16.13-10.18,24.05-3,7.26,1.48,16.3,7.94,17.77-3.69-8.55,1.92-14.03,6.23-20.8,2.63,7.16,9.85,12.08,5.45,21.05Z"/>
  </g>
</svg>