<?xml version="1.0" encoding="UTF-8"?>
<svg id="Calque_2" data-name="Calque 2" xmlns="http://www.w3.org/2000/svg" viewBox="0 0 384 384">
  <defs>
    <style>
      .cls-1 {
        fill: #fff;
      }
    </style>
  </defs>
  <g id="Calque_1-2" data-name="Calque 1">
    <g>
      <path class="cls-1" d="M260.46,0h123.54V384H0V0H120.44V51.48h40.95v-17.17h-23.55V17.17h23.78V0h8.24V33.75h23.57c1,2.54-.12,2.98-2.16,2.96-7.06-.06-14.12-.03-21.11-.03v15.51h40.63V17.97c-7.21,0-14.18-.05-21.15,.03-2.39,.03-3.17-.68-1.96-3.19h23.36V0h8.24V33.75h23.57c1,2.54-.12,2.98-2.16,2.96-7.06-.06-14.12-.03-21.11-.03v15.51h40.63V17.97c-7.21,0-14.18-.05-21.15,.03-2.39,.03-3.17-.68-1.96-3.19h23.36V0Zm-67.91,75.94c-43.67,0-87.34,.02-131.01-.04-3.2,0-4.52,.24-4.04,4.29,1.48,12.47,2.29,25.02,3.36,37.54,.8,9.3,1.56,18.59,2.4,27.89,1.16,12.88,2.41,25.76,3.57,38.64,.85,9.54,1.58,19.09,2.42,28.63,1.17,13.26,2.4,26.51,3.6,39.76,.83,9.17,1.63,18.34,2.45,27.51,1.17,13.01,2.34,26.02,3.53,39.02,.89,9.78,1.92,19.56,2.65,29.35,.22,2.94,1.6,3.92,4.21,4.64,34.2,9.41,68.36,18.96,102.58,28.32,2.49,.68,5.48,.65,7.98,0,14.57-3.83,29.06-7.93,43.57-11.96,19.67-5.46,39.32-10.98,59.02-16.32,2.82-.77,4.36-1.94,4.29-4.96-.03-1.23,.31-2.46,.41-3.7,.83-9.79,1.6-19.59,2.48-29.38,1.13-12.51,2.39-25.01,3.5-37.52,1.13-12.64,2.1-25.29,3.23-37.93,1.12-12.51,2.4-25.01,3.51-37.52,1.13-12.64,2.09-25.29,3.22-37.93,1.37-15.24,2.9-30.46,4.26-45.7,1.13-12.64,2.08-25.29,3.2-37.93,.42-4.69,.55-4.69-4.13-4.69-43.42,0-86.84,0-130.26,0Z"/>
      <path d="M211.04,0V14.81h-23.36c-1.21,2.51-.42,3.22,1.96,3.19,6.97-.08,13.93-.03,21.15-.03V52.2h-40.63v-15.51c6.99,0,14.05-.04,21.11,.03,2.04,.02,3.15-.42,2.16-2.96h-23.57V0h41.18Z"/>
      <path d="M260.46,0V14.81h-23.36c-1.21,2.51-.42,3.22,1.96,3.19,6.97-.08,13.93-.03,21.15-.03V52.2h-40.63v-15.51c6.99,0,14.05-.04,21.11,.03,2.04,.02,3.15-.42,2.16-2.96h-23.57V0h41.18Z"/>
      <path d="M161.62,0V17.17h-23.78v17.14h23.55v17.17h-40.95V0h41.18Z"/>
      <path d="M192.56,75.94c43.42,0,86.84,0,130.26,0,4.68,0,4.55,0,4.13,4.69-1.13,12.64-2.07,25.29-3.2,37.93-1.36,15.24-2.89,30.46-4.26,45.7-1.14,12.64-2.09,25.29-3.22,37.93-1.12,12.51-2.4,25.01-3.51,37.52-1.13,12.64-2.1,25.29-3.23,37.93-1.12,12.51-2.38,25.01-3.5,37.52-.88,9.79-1.65,19.59-2.48,29.38-.1,1.24-.44,2.47-.41,3.7,.07,3.02-1.46,4.2-4.29,4.96-19.7,5.34-39.35,10.86-59.02,16.32-14.51,4.03-29.01,8.13-43.57,11.96-2.5,.66-5.49,.69-7.98,0-34.22-9.35-68.38-18.91-102.58-28.32-2.61-.72-3.99-1.7-4.21-4.64-.73-9.79-1.76-19.57-2.65-29.35-1.19-13.01-2.36-26.01-3.53-39.02-.83-9.17-1.63-18.34-2.45-27.51-1.2-13.25-2.43-26.51-3.6-39.76-.84-9.54-1.57-19.09-2.42-28.63-1.15-12.88-2.4-25.76-3.57-38.64-.84-9.29-1.61-18.59-2.4-27.89-1.07-12.52-1.88-25.07-3.36-37.54-.48-4.04,.84-4.29,4.04-4.29,43.67,.07,87.34,.04,131.01,.04Zm-.27,212.09c-1.18-.06-1.82,.02-2.39-.13-10.93-2.94-21.89-5.81-32.75-8.98-1.15-.34-2.41-2.36-2.57-3.72-.77-6.67-1.15-13.39-1.76-20.08-.18-1.97-.38-3.95-3.34-3.92-9.73,.11-19.46,.08-29.2,.01-2.57-.02-3.15,1.12-2.92,3.49,1.46,14.86,3.05,29.71,4.11,44.59,.47,6.58-.01,6.12,6.79,8.01,20.03,5.56,40.05,11.15,60.09,16.63,2.85,.78,4.07,2.11,4,5.21-.19,8.6-.08,17.21-.05,25.82,.02,4.5,.4,4.74,4.8,3.51,26.68-7.39,53.33-14.88,80.07-22.06,3.87-1.04,5.35-2.94,5.65-6.59,1-12.16,2.09-24.3,3.14-36.45,1.07-12.4,2.1-24.8,3.21-37.2,1.13-12.64,2.38-25.27,3.51-37.92,1.12-12.52,2.1-25.05,3.22-37.57,1.12-12.52,2.37-25.02,3.52-37.54,1.23-13.38,2.37-26.77,3.63-40.15,.39-4.19-.08-4.94-4.24-4.94-34.06-.02-68.12,.02-102.19-.06-3.21,0-4.45,1.03-4.38,4.31,.16,7.98,.06,15.97,.05,23.95q0,5.18-5.13,5.19c-25.45,0-50.91,.03-76.36-.04-2.85,0-4.5,.45-4.14,3.86,.91,8.66,1.54,17.35,2.43,26.02,.54,5.26,.68,5.25,5.78,5.25,24.33,0,48.66,.04,72.99-.05,3.06-.01,4.57,.59,4.49,4.08-.2,8.73-.14,17.46-.03,26.19,.04,2.84-1.14,3.65-3.82,3.59-6.24-.14-12.48-.04-18.71-.04-17.72,0-35.43,.01-53.15-.01-2.29,0-4.27-.06-3.9,3.26,1,9.15,2.06,18.3,2.64,27.48,.24,3.73,1.68,4.44,5.04,4.42,22.46-.12,44.92,0,67.37-.13,3.39-.02,4.64,.9,4.56,4.41-.2,8.48-.06,16.96-.06,25.45,0,7.47,0,14.94,0,22.85Z"/>
      <path class="cls-1" d="M192.29,288.03c0-7.92,0-15.38,0-22.85,0-8.48-.14-16.97,.06-25.45,.08-3.5-1.17-4.43-4.56-4.41-22.46,.13-44.92,0-67.37,.13-3.36,.02-4.8-.69-5.04-4.42-.58-9.18-1.64-18.33-2.64-27.48-.36-3.33,1.61-3.27,3.9-3.26,17.72,.03,35.43,.01,53.15,.01,6.24,0,12.48-.09,18.71,.04,2.68,.06,3.85-.75,3.82-3.59-.11-8.73-.17-17.47,.03-26.19,.08-3.5-1.42-4.1-4.49-4.08-24.33,.1-48.66,.05-72.99,.05-5.11,0-5.24,0-5.78-5.25-.9-8.66-1.52-17.36-2.43-26.02-.36-3.42,1.29-3.87,4.14-3.86,25.45,.07,50.91,.04,76.36,.04q5.12,0,5.13-5.19c0-7.98,.11-15.97-.05-23.95-.07-3.29,1.17-4.32,4.38-4.31,34.06,.08,68.12,.04,102.19,.06,4.15,0,4.63,.75,4.24,4.94-1.26,13.38-2.4,26.77-3.63,40.15-1.15,12.52-2.39,25.02-3.52,37.54-1.12,12.52-2.1,25.05-3.22,37.57-1.13,12.64-2.38,25.27-3.51,37.92-1.11,12.4-2.14,24.8-3.21,37.2-1.05,12.15-2.14,24.3-3.14,36.45-.3,3.65-1.78,5.55-5.65,6.59-26.74,7.18-53.39,14.67-80.07,22.06-4.41,1.22-4.79,.99-4.8-3.51-.03-8.61-.14-17.22,.05-25.82,.07-3.1-1.15-4.43-4-5.21-20.05-5.48-40.07-11.07-60.09-16.63-6.8-1.89-6.32-1.43-6.79-8.01-1.06-14.89-2.65-29.74-4.11-44.59-.23-2.37,.35-3.5,2.92-3.49,9.73,.07,19.46,.1,29.2-.01,2.96-.03,3.16,1.95,3.34,3.92,.61,6.69,.99,13.41,1.76,20.08,.16,1.36,1.42,3.38,2.57,3.72,10.87,3.17,21.82,6.05,32.75,8.98,.57,.15,1.21,.07,2.39,.13Z"/>
    </g>
  </g>
</svg>