<?xml version="1.0" encoding="UTF-8"?>
<svg id="Calque_2" data-name="Calque 2" xmlns="http://www.w3.org/2000/svg" viewBox="0 0 500 500">
  <defs>
    <style>
      .cls-1 {
        fill: #fff;
      }
    </style>
  </defs>
  <g id="Calque_1-2" data-name="Calque 1">
    <g>
      <path class="cls-1" d="M0,391C0,297,0,203,0,109c.3-.93,.77-1.83,.88-2.78C6.13,58.96,39.73,18.58,85.3,5.19,93.04,2.91,101.09,1.7,109,0c94,0,188,0,282,0,.93,.3,1.83,.77,2.78,.88,47.32,5.3,87.59,38.81,101.03,84.43,2.28,7.74,3.49,15.79,5.19,23.7V391c-.3,.93-.77,1.83-.88,2.78-5.23,47.22-38.84,87.62-84.43,101.03-7.74,2.28-15.79,3.49-23.7,5.19H109c-.93-.3-1.83-.77-2.78-.88-47.26-5.26-87.64-38.85-101.03-84.42-2.27-7.74-3.48-15.79-5.19-23.7ZM250.5,125.06c-14.5,0-29-.04-43.5,0-21.5,.07-38.08,16.36-38.07,37.33,.01,21.09,16.46,37.49,37.82,37.54,28.83,.06,57.66,.06,86.5,0,21.18-.05,37.76-16.38,37.82-37.07,.06-21.37-16.39-37.73-38.07-37.8-14.17-.04-28.33,0-42.5,0Zm-7.38,161.86c.27-.61,.52-.9,.52-1.2,.05-23.3,.13-46.59-.02-69.89,0-1.07-2.01-3.04-3.09-3.05-12.81-.13-25.65-.52-38.42,.26-18.02,1.11-32.66,17.12-33.16,35.18-.55,19.39,12.71,36.77,31.13,38.44,14.17,1.28,28.54,.26,43.05,.26Zm.04,13.14c-12.62,0-25.09-.13-37.57,.03-19.52,.26-35.91,16.1-36.63,35.17-.79,20.85,13.91,37.91,34.11,39.6,19.66,1.64,37.91-12.15,39.82-31.83,1.36-13.97,.26-28.18,.26-42.96Zm51.29-12.7c21.13-.5,37.05-17.32,36.61-38.68-.41-20.09-17.44-36.33-37.76-36.02-20.76,.32-37.54,17.49-37.06,37.93,.48,20.78,17.6,37.26,38.21,36.78Z"/>
      <path d="M250.5,125.06c14.17,0,28.33-.04,42.5,0,21.69,.07,38.14,16.43,38.07,37.8-.06,20.69-16.65,37.02-37.82,37.07-28.83,.07-57.66,.06-86.5,0-21.36-.05-37.81-16.45-37.82-37.54-.01-20.97,16.58-37.26,38.07-37.33,14.5-.05,29,0,43.5,0Z"/>
      <path d="M243.12,286.92c-14.51,0-28.88,1.03-43.05-.26-18.41-1.67-31.67-19.05-31.13-38.44,.51-18.06,15.15-34.07,33.16-35.18,12.77-.78,25.61-.39,38.42-.26,1.09,.01,3.09,1.98,3.09,3.05,.14,23.29,.07,46.59,.02,69.89,0,.3-.25,.59-.52,1.2Z"/>
      <path d="M243.16,300.06c0,14.78,1.09,28.99-.26,42.96-1.91,19.69-20.16,33.48-39.82,31.83-20.2-1.69-34.9-18.75-34.11-39.6,.72-19.07,17.11-34.91,36.63-35.17,12.47-.16,24.95-.03,37.57-.03Z"/>
      <path d="M294.45,287.35c-20.61,.48-37.73-15.99-38.21-36.78-.48-20.44,16.3-37.61,37.06-37.93,20.32-.31,37.35,15.93,37.76,36.02,.44,21.36-15.48,38.19-36.61,38.68Z"/>
    </g>
  </g>
</svg>