<?xml version="1.0" encoding="UTF-8"?>
<svg id="Calque_2" data-name="Calque 2" xmlns="http://www.w3.org/2000/svg" viewBox="0 0 289.61 275.86">
  <g id="Calque_1-2" data-name="Calque 1">
    <g>
      <path d="M289.61,142.51c-.73,4.92-1.28,9.87-2.22,14.75-5.78,29.94-19.98,55.14-42.79,75.43-19.28,17.16-41.77,27.55-67.14,31.89-.16,.03-.34-.1-.3-.09-.26-5.49-.52-10.89-.79-16.58,22.23-4.05,41.92-13.59,58.91-29.09-.37-.42-.64-.76-.94-1.07-3.27-3.34-4.2-7.22-2.72-11.67,.65-1.96,1.37-3.91,1.86-5.91,.88-3.59,.04-5.23-3.32-6.77-1.62-.74-3.29-1.38-4.96-2.01-1.8-.68-2.62-1.89-2.71-3.85-.21-4.71,1.39-8.47,5.4-11.09,1.89-1.23,3.87-2.34,5.68-3.7,2.68-2.01,3.14-4.01,1.94-7.18-1.96-5.18-7.05-8.79-12.62-8.79-5.62,0-10.79-1.4-15.43-4.59-3.59-2.47-5.89-5.95-5.37-10.26,1.02-8.5-3.38-12.99-10.52-15.93-3.13-1.28-6.19-2.73-9.29-4.08-3.19-1.39-4.6-4.05-5.16-7.26-1.6-9.3,3.95-19.68,12.75-23.31,6.44-2.66,12.89-5.16,18.43-9.6,9.33-7.48,12.79-16.62,9.63-28.47-2.85-10.7-7.42-20.23-16.42-26.89-3.2-2.37-7.37-3.79-11.31-4.73-8.03-1.9-16.16-3.58-24.34-4.6-6.56-.82-13.18,.13-19.39,2.67-5.34,2.19-6.35,6.38-2.05,10.26,3.16,2.85,7.05,4.96,10.78,7.09,3.34,1.9,6.96,3.31,10.39,5.08,2,1.03,3.98,2.18,5.74,3.57,4.13,3.24,4.22,7.43,.07,10.65-4.61,3.58-9.51,6.77-14.18,10.27-1.8,1.34-3.45,2.94-4.93,4.63-3.45,3.92-2.4,8.4,2.34,10.56,4.17,1.9,4.74,3.07,3.86,7.72-1.07,5.67-3.24,10.82-7.49,14.86-4.22,4.02-7.84,4.05-12.09,.1-2.76-2.56-5.33-5.34-8.08-7.92-5.38-5.04-11.6-8.2-19.09-8.81-5.43-.44-12.47,3.95-15.51,10.04-2.6,5.2-1.8,10.71,2.04,14.91,2.13,2.33,4.68,3.07,7.66,2.37,3.02-.71,5.99-1.61,9.01-2.31,4.38-1.03,7.34,.61,8.22,4.99,.98,4.88,1.54,9.84,2.25,14.77,1.28,8.96,5.85,15.24,14.52,18.46,4.61,1.71,9.07,3.83,14.16,6.01-7.19,2.06-13.67,3.83-20.09,5.8-4.49,1.38-8.97,2.84-13.31,4.63-3.38,1.4-6.55,1.82-10.03,.51-2.27-.85-4.71-1.29-7.69-2.08,1.21-.96,2.1-1.67,2.99-2.37,1.71-1.33,3.54-2.53,5.11-4,6.21-5.82,4.94-15.1-2.8-18.71-4.57-2.13-9.47-3.59-14.28-5.17-8.18-2.67-16.23-5.56-22.68-11.56-7.4-6.87-11.78-15.62-14.67-25.06-1.83-5.97-2.69-12.25-4.01-18.56-11.18,22.12-14.79,45.52-11.38,69.77-5.51,1.1-10.71,2.13-16.22,3.23-.39-3.02-.98-6.31-1.24-9.62C18.56,75.61,64.53,17.39,126.91,3.34c68.11-15.34,135.51,23.48,156.73,90.16,2.89,9.07,4.77,18.37,5.44,27.89,.06,.82,.35,1.63,.53,2.44v18.67Z"/>
      <path d="M177.69,170.82c-5.56,2.51-11.07,5.12-16.7,7.47-2.37,.99-3.71,2.22-3.36,4.94,.13,.99-.14,2.04-.25,3.35,1.16-.48,2.1-.84,3.01-1.26,8.63-3.96,17.26-7.92,25.89-11.9,5.66-2.61,13.83,1.16,15.56,7.24,1.61,5.64-.83,10.14-4.39,14.15-6.37,7.18-14.5,11.95-22.92,16.24-26.95,13.71-55.55,23.03-84.6,30.9-20.93,5.67-42.17,10.24-63.29,15.2-4.83,1.13-9.75,1.04-14.53-.4-1.5-.45-3.01-1.18-4.25-2.13-2.66-2.04-3.11-5.23-1.28-8.03,.77-1.18,1.7-2.26,2.65-3.3,.95-1.03,2.02-1.96,3.12-3.01-3.46-6.16-6.6-12.38-10.32-18.23-5.17-8.13,.39-11.44,6.76-12.01,2.91-.26,6.2,.64,8.9,1.91,6.3,2.94,12.32,6.49,18.53,9.62,.98,.49,2.62,.62,3.55,.13,8.32-4.4,16.55-8.97,24.8-13.49,.32-.17,.6-.42,1.12-.79-.97-.67-1.76-1.25-2.59-1.79-12.48-8.1-24.97-16.19-37.44-24.3-5.41-3.52-5.33-7.58,.02-11.13,7.28-4.83,14.95-5.95,23.41-3.64,21.67,5.89,43.39,11.56,65.13,17.2,1.49,.39,3.35,.2,4.81-.33,12.97-4.77,25.89-9.77,39.55-12.17,6.23-1.09,12.64-1.12,18.96-1.64l.15,1.23Z"/>
      <path d="M162.79,258.25c.12,8.61-6.7,16.79-14.56,17.59-1.58,.16-3.83-.8-4.92-2.01-8.54-9.41-16.9-18.99-25.25-28.57-2.09-2.39-1.55-4.32,1.44-5.38,11.85-4.21,23.71-8.37,35.59-12.5,2.44-.85,4.05,.02,4.34,2.37,1.2,9.7,2.3,19.41,3.37,28.51Z"/>
    </g>
  </g>
</svg>