<?xml version="1.0" encoding="UTF-8"?>
<svg id="Calque_2" data-name="Calque 2" xmlns="http://www.w3.org/2000/svg" viewBox="0 0 68.25 68.24">
  <g id="Calque_1-2" data-name="Calque 1">
    <g>
      <path d="M31.87,0c1.51,0,3.02,0,4.53,0,.19,.04,.38,.1,.58,.13,1.21,.17,2.43,.26,3.62,.5,6.1,1.18,11.49,3.85,16.12,8,6.1,5.46,9.85,12.24,11.14,20.34,.15,.96,.26,1.93,.4,2.89v4.53c-.1,.76-.18,1.53-.3,2.29-.65,4.19-1.97,8.15-4.06,11.85-.23,.41-.29,.78-.16,1.24,.95,3.38,1.86,6.77,2.8,10.16,.56,2.02,1.14,4.03,1.72,6.04v.27c-5.26-1.62-10.53-3.24-15.79-4.89-.47-.15-.82-.1-1.23,.14-4.12,2.41-8.54,3.95-13.3,4.52-3.42,.41-6.83,.3-10.2-.37-7.73-1.53-14.25-5.24-19.35-11.24C.83,47.47-1.65,37.22,1.07,25.83c1.65-6.93,5.34-12.71,10.7-17.39C16.74,4.09,22.5,1.38,29.05,.38,29.99,.24,30.93,.13,31.87,0Zm24.03,34.11c0-11.85-9.43-21.89-21.91-21.95-12.3-.06-21.97,9.88-21.99,21.92-.02,11.9,9.48,21.99,21.93,21.98,12.4,0,21.96-9.98,21.97-21.96Z"/>
      <path d="M28.24,38.06v-7.91h11.8v7.91h-11.8Z"/>
      <path d="M39.59,26.09h-10.74c.57-2.87,1.29-5.65,2.91-8.09,.37-.56,.88-1.06,1.4-1.49,.66-.55,1.24-.51,1.94-.02,1.29,.91,2.03,2.25,2.56,3.65,.73,1.92,1.27,3.9,1.92,5.95Z"/>
      <path d="M39.42,42.14c-.58,2.85-1.26,5.61-2.88,8.04-.39,.58-.9,1.09-1.44,1.54-.66,.55-1.31,.58-1.92,0-.73-.69-1.43-1.46-1.93-2.33-1.27-2.23-1.92-4.7-2.39-7.25h10.56Z"/>
      <path d="M24.21,30.14v7.93h-7.77c-.64-2.64-.64-5.28,0-7.93h7.76Z"/>
      <path d="M44.06,30.14h7.38c.66,2.63,.64,5.26,.02,7.93h-7.4v-7.93Z"/>
      <path d="M27.41,17.48c-1.29,2.76-2.04,5.65-2.59,8.62h-6.89c2.11-4.08,5.23-6.95,9.48-8.62Z"/>
      <path d="M17.93,42.14h6.84c.36,1.47,.67,2.96,1.11,4.4,.43,1.42,1,2.8,1.54,4.29-4.25-1.73-7.36-4.61-9.49-8.69Z"/>
      <path d="M49.89,26.09h-6.25c-.85-2.85-1.69-5.65-2.52-8.39,2.41,.31,7.67,5.25,8.77,8.39Z"/>
      <path d="M40.87,50.72c.39-.98,.78-1.8,1.03-2.65,.52-1.76,.99-3.53,1.41-5.32,.11-.47,.23-.66,.75-.66,1.93,.03,3.86,.01,5.92,.01-2.03,3.95-4.99,6.78-9.11,8.61Z"/>
    </g>
  </g>
</svg>