<?xml version="1.0" encoding="UTF-8"?>
<svg id="Calque_2" data-name="Calque 2" xmlns="http://www.w3.org/2000/svg" viewBox="0 0 120.93 96.33">
  <g id="Calque_1-2" data-name="Calque 1">
    <g>
      <path d="M0,47.91c2.04-1.82,4.04-3.7,6.14-5.45C22.08,29.15,38.05,15.86,54,2.56c4.12-3.43,8.81-3.42,12.94,.05,5.45,4.58,10.92,9.14,16.38,13.71,.26,.22,.55,.42,1.01,.77,.03-.57,.06-.97,.06-1.38,0-4.01,0-8.03,0-12.04,0-2.68,.77-3.44,3.42-3.44,4.21,0,8.42,0,12.63,0,2.43,0,3.2,.77,3.2,3.16,0,9.56,.01,19.12-.02,28.68,0,.82,.22,1.37,.86,1.9,4.89,4.02,9.77,8.07,14.62,12.13,.59,.49,1.18,1.07,1.55,1.72,.54,.96,.17,1.92-.49,2.72-1.38,1.67-2.76,3.34-4.18,4.97-1.27,1.46-2.6,1.54-4.1,.29-12.75-10.63-25.5-21.26-38.25-31.89-4.38-3.65-8.76-7.3-13.2-11-2.93,2.44-5.83,4.85-8.72,7.26-14.2,11.84-28.4,23.68-42.6,35.51-1.69,1.41-2.97,1.34-4.36-.31-1.62-1.91-3.18-3.87-4.77-5.81,0-.55,0-1.1,0-1.65Z"/>
      <path d="M70.04,96.29v-28.72h-19.16v28.72h-1.37c-8.89,0-17.78-.08-26.67,.04-3.28,.04-5.68-2.33-5.64-5.63,.12-11.49,.06-22.98,.03-34.46,0-.88,.27-1.43,.95-1.98,13.76-11.31,27.52-22.64,41.24-34.01,.87-.72,1.34-.61,2.14,.05,13.7,11.33,27.41,22.64,41.15,33.93,.71,.58,.98,1.17,.98,2.08-.03,11.49-.09,22.98,.03,34.46,.03,3.16-2.32,5.6-5.6,5.56-8.93-.11-17.86-.04-26.79-.04-.38,0-.77,0-1.27,0Z"/>
    </g>
  </g>
</svg>