<?xml version="1.0" encoding="UTF-8"?>
<svg id="Calque_2" data-name="Calque 2" xmlns="http://www.w3.org/2000/svg" viewBox="0 0 276.36 391.13">
  <g id="Calque_1-2" data-name="Calque 1">
    <g>
      <path d="M137.18,391.13c-5.12-1.68-10.19-3.53-15.37-5.01-11.39-3.26-22.82-6.4-34.27-9.46-12.56-3.36-25.18-6.46-37.72-9.88-8.25-2.25-16.39-4.89-24.84-7.43C16.67,265.58,8.35,171.7,0,77.49H276.36c-8.34,94.08-16.65,187.82-25.02,282.19-16.62,4.42-33.46,8.79-50.24,13.39-10.01,2.74-19.89,5.97-29.9,8.73-9.2,2.54-18.51,4.69-27.74,7.12-1.83,.48-3.52,1.47-5.28,2.22h-1Zm42.8-150.5c.39,1.17,.7,1.64,.66,2.08-1.3,13.52-2.57,27.05-4.09,40.55-.11,.98-1.91,2.22-3.13,2.54-11.45,3.04-22.95,5.93-34.45,8.78-1.03,.26-2.25,.09-3.31-.17-10.86-2.75-21.74-5.43-32.51-8.49-1.5-.42-3.28-2.6-3.53-4.19-1.26-7.98-2.06-16.04-3.02-24.08H61.61c1.64,18.51,3.24,36.59,4.78,54.07,8.17,2.39,15.59,4.63,23.04,6.73,14.44,4.05,28.86,8.16,43.38,11.88,3.15,.81,6.84,.7,10.03-.07,9.28-2.22,18.43-5.01,27.64-7.53,13.14-3.6,26.29-7.16,39.32-10.7,3.2-35.9,6.36-71.47,9.58-107.65H92.49c-1.17-11.63-2.29-22.74-3.48-34.52,3.28,0,5.4,0,7.52,0,40.21,.04,80.43,.04,120.64,.19,3.97,.01,6.28-.61,6.18-5.32-.1-4.79,.43-9.59,.84-14.38,.46-5.36,1.1-10.71,1.68-16.25H50.31c3.33,35.63,6.62,70.73,9.96,106.51h119.71Z"/>
      <path d="M140.7,52.82V.26c5.72,0,11.31-.76,16.52,.32,2.65,.55,4.86,4.23,6.82,6.84,2.41,3.21,4.36,6.77,6.9,10.81,3.54-5.5,6.69-10.54,10.02-15.47,.71-1.06,2.03-2.34,3.12-2.4,5.26-.25,10.53-.11,16.07-.11V52.72h-16.83V28.37c-.31-.07-.61-.14-.92-.21-3.74,5.59-7.47,11.18-11.43,17.11-4.52-6.19-8.63-11.81-12.75-17.44-.31,.09-.63,.19-.94,.28v24.71h-16.58Z"/>
      <path d="M43.27,35.5v17.18H25.02V.54h17.91V17.59h15.8V.49h17.24V52.77h-17.04v-17.27h-15.67Z"/>
      <path d="M117.39,52.84h-17.96V18.31h-15.2V.61h48.29V18.12h-15.12V52.84Z"/>
      <path d="M251.74,35.08v17.64h-41.88V.6h16.77V35.08h25.11Z"/>
    </g>
  </g>
</svg>