<?xml version="1.0" encoding="UTF-8"?>
<svg id="Calque_2" data-name="Calque 2" xmlns="http://www.w3.org/2000/svg" viewBox="0 0 383.43 383.36">
  <g id="Calque_1-2" data-name="Calque 1">
    <g>
      <path d="M383.43,375.02c-2.72,6.27-7.45,8.38-14.25,8.34-38.03-.23-76.07-.09-114.1-.11-62.04-.03-114.59-41.8-127.29-102.43-14.89-71.06,30.14-137.04,97.25-152.66,70.86-16.48,141.23,28.83,155.91,100.07,1.03,4.98,1.66,10.03,2.48,15.06v21.71c-.24,.83-.61,1.65-.7,2.49-2.37,23.21-10.63,44.15-24.29,62.99-2.54,3.51-5.35,6.83-8.2,10.45,8.91,6.84,17.8,13.46,26.42,20.4,2.63,2.11,4.53,5.12,6.77,7.72v5.99Zm-146.86-91.98c-2.13,.83-3.78,1.85-5.53,2.1-7.48,1.07-14.97,2.01-22.48,2.81-6.06,.64-10.33,5.16-10.25,11.2,.08,5.98,4.6,10.57,10.6,10.85,15.4,.72,29.95-2.1,43.35-10.06,.92-.55,2.7-.66,3.58-.14,13.02,7.79,27.12,10.83,42.18,10.24,7.09-.28,12.02-4.52,12.08-10.96,.06-6.43-4.79-10.96-11.87-11.18-3.73-.11-7.53,.05-11.18-.59-5.11-.89-10.11-2.42-15.76-3.83,9.98-12.63,14.97-25.96,16.46-40.95,3.79,0,7.38,.05,10.97-.01,4.13-.07,7.52-1.68,9.77-5.23,4.81-7.61-.51-16.96-9.89-17.13-9.72-.19-19.45-.04-29.17-.04-1.31,0-2.63,0-4.19,0,0-3.65,.01-6.74,0-9.84-.04-7.2-4.35-12.03-10.83-12.15-6.7-.12-11.19,4.61-11.36,12.05-.08,3.2-.01,6.4-.01,9.94-1.82,0-3.17,0-4.51,0-9.48,0-18.95-.08-28.42,.03-7.03,.08-11.83,4.8-11.78,11.31,.05,6.48,4.93,11.01,11.99,11.08,3.44,.03,6.88,0,10.4,0,1.23,15.28,6.58,28.44,15.88,40.5Z"/>
      <path d="M134.92,0c6.57,1.26,13.28,2.01,19.68,3.86,49.14,14.21,79.33,46.48,90.95,96.23,.11,.48,.11,.99,.12,1.49,0,.23-.11,.46-.29,1.14-29.87,1.94-57.1,11.79-81.67,29.87-.71-1.33-1.35-2.46-1.94-3.63-8.98-17.76-18-35.51-26.91-53.31-2.29-4.57-5.36-7.8-10.81-7.81-5.59-.01-8.69,3.21-11.03,7.99-14.25,29.05-28.65,58.01-42.97,87.02-2.8,5.68-1.62,11.33,2.91,14.73,4.07,3.06,10.02,3.02,13.78-.5,1.67-1.56,2.84-3.74,3.96-5.8,2.37-4.36,3.5-10.57,7.12-12.77,3.78-2.3,9.87-.85,14.96-.9,7.84-.07,15.68-.02,24.58-.02-21.4,26.68-32.81,56.45-34.57,89.91-1.34,.08-2.31,.19-3.29,.19-28.94,0-57.87,.03-86.81,0-7.94,0-12.98-5.16-12.46-12.56,.26-3.8,2.46-6.38,5.34-8.57,7.74-5.89,15.44-11.82,23.16-17.74,.97-.75,1.91-1.54,2.99-2.42-12.52-14.19-21.34-30.18-26.69-48.11C-14.26,93.61,23.88,23.8,88.86,5.15c7.13-2.05,14.58-2.99,21.88-4.46C111.58,.53,112.39,.24,113.21,0c7.24,0,14.47,0,21.71,0Z"/>
      <path d="M124.04,103.76c5.42,10.74,10.53,20.87,15.86,31.44h-31.33c5.1-10.37,10.11-20.54,15.47-31.44Z"/>
      <path d="M243.18,242.7h21.99c-.99,9.95-4.7,18.49-10.98,26.5-6.37-7.91-10.05-16.48-11.01-26.5Z"/>
    </g>
  </g>
</svg>