<?xml version="1.0" encoding="UTF-8"?>
<svg id="Calque_2" data-name="Calque 2" xmlns="http://www.w3.org/2000/svg" viewBox="0 0 458.15 459.64">
  <g id="Calque_1-2" data-name="Calque 1">
    <path d="M10.77,0c7.22,.91,14.45,1.77,21.66,2.74,44.5,5.96,87.77,16,126.95,39.13,21.06,12.43,38.86,28.33,50.7,50.14,10.09,18.59,14.55,38.57,12.7,59.55-1.12,12.71-4.11,25.25-6.09,37.89-.3,1.91-.26,4.35,.69,5.89,14.16,22.9,24.04,47.61,31.42,73.4,.07,.26,.33,.46,.84,1.15,.89-1.27,1.76-2.35,2.45-3.54,7-12.09,15.29-23.22,25.21-33.06,2.03-2.01,2.06-3.9,1.45-6.43-3.83-15.89-4.77-31.89-1-47.92,5.25-22.3,18.53-39.12,36.56-52.58,16.71-12.48,35.49-20.75,55.22-27.06,27.7-8.86,56.1-14.07,85.13-15.81,.88-.05,1.77,0,3.47,0-.46,6.33-.75,12.52-1.38,18.66-3.15,30.43-9.54,60.11-21.56,88.34-9.56,22.46-22.51,42.55-42.94,56.83-16.77,11.72-35.59,16.23-56.78,15.42,3.45-35.44,21.82-63.37,42.06-90.81-2.23,1.71-4.5,3.38-6.67,5.16-2.2,1.8-4.35,3.65-6.45,5.57-28.54,25.97-50.06,57.28-68.88,90.64-10.05,17.82-19.62,35.78-25.61,55.55-4.28,14.12-5.23,27.99-3.92,42.73,1.98,22.31,2.18,44.8,2.51,67.22,.18,12.18-8.98,20.84-20.53,20.83-11.49,0-20.33-8.78-20.74-20.9-.46-13.75-.35-27.53-1.05-41.27-2.46-48.01-8-95.54-25-140.93-12.7-33.92-29.02-66.14-48.27-96.81-9.45-15.05-19.73-29.57-29.66-44.33-.73-1.09-1.61-2.08-2.82-2.96,15.49,36.67,27.79,74.08,29.24,114.99-1.8,0-3.37,0-4.94,0-39.01,.05-68.55-17.89-91.33-48.37-16.65-22.28-27.34-47.48-35.37-73.93C9.1,75.61,3.42,45.47,.84,14.75,.43,9.84,.27,4.92,0,0H10.77Z"/>
  </g>
</svg>