<?xml version="1.0" encoding="UTF-8"?>
<svg id="Calque_2" data-name="Calque 2" xmlns="http://www.w3.org/2000/svg" viewBox="0 0 218.73 248.87">
  <g id="Calque_1-2" data-name="Calque 1">
    <g>
      <path d="M96.75,248.87c-3.53-.33-7.05-.67-10.58-.97-19.8-1.68-39.25-5.06-57.72-12.72-7.64-3.17-14.91-7.09-20.73-13.17-10.6-11.07-10.26-24,.87-34.54,6.52-6.17,14.27-10.33,22.58-13.39,6.05-2.23,12.32-3.83,18.43-5.9,2.23-.75,3.23-.06,4.41,1.8,11.44,18.03,22.99,35.98,34.5,53.97,5.46,8.54,13.16,12.71,23.32,11.82,8.17-.71,14.11-5.05,18.45-11.86,11.52-18.07,23.11-36.1,34.59-54.19,1.1-1.73,2.05-2.11,4.07-1.58,10.8,2.86,21.4,6.19,31.13,11.85,5.5,3.2,10.49,7.01,14.26,12.24,6.49,8.99,5.72,20.05-1.73,28.23-6.2,6.81-13.95,11.24-22.27,14.73-14.32,6.01-29.34,9.39-44.71,11.24-7.14,.86-14.32,1.34-21.48,2.02-.71,.07-1.4,.28-2.11,.43h-25.27Z"/>
      <path d="M29.2,80.28c.03-32.53,19.32-61.56,49.25-74.1,31.31-13.12,67.82-4.91,90.46,20.41,15.04,16.82,21.78,36.64,20.53,59.06-.75,13.46-4.92,25.98-12.22,37.37-20.25,31.59-40.53,63.16-60.8,94.74-2.55,3.97-5.57,5.67-9,4.23-1.99-.84-3.91-2.63-5.11-4.48-16.37-25.34-32.62-50.75-48.87-76.16-4.88-7.63-9.91-15.17-14.42-23.02-6.75-11.75-9.82-24.49-9.81-38.04Zm80.2,36.37c19.87-.01,36.31-16.4,36.43-36.33,.12-19.9-16.5-36.56-36.45-36.55-19.87,.01-36.31,16.4-36.43,36.33-.12,19.9,16.5,36.56,36.45,36.55Z"/>
    </g>
  </g>
</svg>