<?xml version="1.0" encoding="UTF-8"?>
<svg id="Calque_2" data-name="Calque 2" xmlns="http://www.w3.org/2000/svg" viewBox="0 0 383.52 383.48">
  <defs>
    <style>
      .cls-1 {
        fill: hsl(9, 61%, 59%);
      }
    </style>
  </defs>
  
  <g id="Calque_1-2" data-name="Calque 1">
    <g>
      <path class="cls-1" d="M205.35,383.48h-26.95c-1.08-.24-2.16-.56-3.25-.72-7.75-1.14-15.61-1.76-23.24-3.43-45.4-9.94-82.83-33.08-111.21-69.85C4.61,262.71-7.47,209.74,4.43,152.02,14.74,101.98,41.86,62.29,84,33.43,126.32,4.46,173.3-5.36,223.8,2.73c35.08,5.62,66.19,20.43,93.03,43.76,34.21,29.73,55.63,66.91,63.71,111.61,1.21,6.71,1.99,13.49,2.97,20.24v26.95c-.81,6.02-1.42,12.08-2.47,18.06-7.5,42.9-27.03,79.39-58.93,109.04-27.4,25.47-59.61,41.59-96.5,48.13-6.72,1.19-13.51,1.98-20.26,2.96Zm-14.07-66.57c1.71-1.83,2.59-2.69,3.38-3.64,13.59-16.43,27.53-32.58,40.66-49.37,16.05-20.55,30.57-42.17,41.61-65.93,7.31-15.73,11.52-31.85,8.79-49.55-6.67-43.31-41.19-77.11-84.86-80.66-37.32-3.03-67.2,11.44-88.31,42.56-11.75,17.33-16.89,36.79-15.01,57.79,.94,10.53,4.86,20.29,9.25,29.8,10.73,23.21,24.87,44.34,40.46,64.46,14.19,18.32,29.09,36.09,44.03,54.54Z"/>
      <path class="cls-1" d="M155.91,160.2c.05-20.07,16.05-35.9,36.21-35.81,20.06,.09,35.81,16.09,35.71,36.3-.09,19.86-16.05,35.65-36.02,35.64-20.07-.02-35.95-16-35.9-36.13Z"/>
    </g>
  </g>
</svg>