<?xml version="1.0" encoding="UTF-8"?>
<svg id="Calque_2" data-name="Calque 2" xmlns="http://www.w3.org/2000/svg" viewBox="0 0 87.58 87.59">
  <defs>
    <style>
      .cls-1 {
        fill: hsl(9, 61%, 59%);
      }
    </style>
  </defs>
  <g id="Calque_1-2" data-name="Calque 1">
    <g>
      <path class="cls-1" d="M40.69,0C42.75,0,44.8,0,46.85,0c1.71,.24,3.44,.4,5.14,.74,10.68,2.16,19.5,7.45,26.21,16.04,7.88,10.09,10.8,21.57,8.75,34.18-1.8,11.1-7.26,20.23-16.12,27.17-10.68,8.36-22.82,11.16-36.08,8.47-10.46-2.12-18.97-7.62-25.55-16.02C4.53,64.62,1.62,57.87,.49,50.37,.33,49.26,.16,48.14,0,47.02c0-2.17,0-4.33,0-6.5,.06-.24,.13-.48,.17-.73,.2-1.43,.32-2.88,.6-4.3,1.87-9.45,6.36-17.46,13.45-23.98C20.44,5.79,27.73,2.16,36.07,.68,37.6,.41,39.15,.23,40.69,0Zm3.17,23.91c-7.46,0-14.93,.07-22.39-.03-3.05-.04-5.94,2.18-5.92,5.96,.05,9.29,.05,18.57,0,27.86-.02,3.81,2.89,5.98,5.91,5.97,14.87-.08,29.74-.08,44.61,0,3.11,.02,5.94-2.22,5.92-5.96-.04-9.29-.05-18.57,0-27.86,.02-3.77-2.84-6.01-5.91-5.97-7.41,.11-14.81,.03-22.22,.03Z"/>
      <path class="cls-1" d="M67.5,30.68v1.05c0,8.55,0,17.1,0,25.64,0,1.56-.21,1.78-1.76,1.78-14.67,0-29.35,0-44.02,0-1.4,0-1.67-.25-1.67-1.61,0-8.63,0-17.27,0-25.9,0-.25,0-.5,0-.95,.36,.25,.6,.4,.83,.58,7,5.56,14.01,11.12,21.01,16.69,1.47,1.17,2.31,1.17,3.78,0,7-5.56,14.01-11.12,21.01-16.68,.22-.17,.44-.32,.82-.6Z"/>
      <path class="cls-1" d="M24.59,28.43H62.94c-.26,.25-.44,.44-.64,.6-5.98,4.74-11.96,9.48-17.93,14.24-.43,.34-.69,.4-1.15,.04-6.01-4.8-12.04-9.57-18.06-14.35-.17-.13-.32-.29-.57-.52Z"/>
    </g>
  </g>
</svg>