<?xml version="1.0" encoding="UTF-8"?>
<svg id="Calque_2" data-name="Calque 2" xmlns="http://www.w3.org/2000/svg" viewBox="0 0 383.46 383.4">
  <g id="Calque_1-2" data-name="Calque 1">
    <path d="M205.3,383.4h-26.95c-1.08-.24-2.16-.55-3.25-.72-7.75-1.14-15.61-1.76-23.24-3.43-45.39-9.97-82.8-33.09-111.22-69.85C5.4,263.82-6.85,212.1,3.61,155.59,12.32,108.54,36.23,70.03,73.99,40.63,116.61,7.45,165.17-5.09,218.58,1.85c31.81,4.13,60.79,16.02,86.51,35.23,40.78,30.47,66.15,70.74,75.4,120.93,1.24,6.7,2,13.49,2.98,20.24v26.95c-.81,6.02-1.42,12.08-2.47,18.06-7.53,43.03-27.14,79.62-59.21,109.31-27.35,25.33-59.47,41.36-96.23,47.87-6.72,1.19-13.51,1.98-20.26,2.96ZM45.34,152.24v78.8c3.1-.39,5.93-.93,8.78-1.06,2.58-.11,3.37-1.16,3.35-3.7-.11-10.48-.05-20.96-.05-31.43,0-1.94,0-3.88,0-5.81,1.15,1.01,1.59,2.09,1.97,3.19,3.81,10.92,7.57,21.86,11.48,32.74,.37,1.03,1.65,2.54,2.44,2.5,3.94-.2,7.86-.85,11.79-1.34v-73.58h-12.26v42.02c-.95-.7-1.3-1.57-1.62-2.45-4.45-12.28-8.97-24.53-13.3-36.85-.79-2.25-1.78-3.25-4.21-3.07-2.7,.2-5.44,.05-8.38,.05Zm249.41,0c.67,1.89,1.04,3.05,1.48,4.18,3.82,9.85,7.78,19.65,11.38,29.59,.71,1.96,.67,4.69-.12,6.62-4.06,10.02-8.48,19.9-12.76,29.84-.41,.96-.68,1.98-1.1,3.21,3.23,.39,6.09,.56,8.87,1.11,2.81,.55,4.25-.32,5.31-3.05,2.22-5.72,4.81-11.3,7.59-17.74,2.93,7.49,5.44,14.07,8.12,20.58,.45,1.08,1.5,2.48,2.48,2.68,3.86,.79,7.8,1.16,12.21,1.75-.58-1.81-.91-3.1-1.39-4.32-4.36-11.24-8.86-22.43-13.01-33.75-.72-1.95-.63-4.68,.15-6.62,4.01-9.91,8.37-19.68,12.6-29.5,.57-1.33,1.08-2.69,1.75-4.38-1.54-.08-2.62-.19-3.7-.2q-9.58-.07-13.31,8.6c-1.64,3.8-3.32,7.58-5.31,12.1-2.6-6.68-4.78-12.49-7.18-18.2-.43-1.02-1.7-2.31-2.66-2.39-3.57-.28-7.17-.11-11.41-.11Zm-184.98,59.58v-18.66h16.04v-12.15h-16.12v-16.38h21.41v-12.15h-33.54v72.49c11.43-.86,22.54-1.7,33.54-2.52v-12.08c-7.27,.5-14.2,.97-21.33,1.46Zm110.16-59.32h-33.98v68.12h12.04v-28.1h16.43v-12.23h-16.36v-15.71h21.87v-12.09Zm-80.25-.05v12.33h12.7v56.83c4.27-.21,8.17-.4,12.55-.62v-56.48h12.4v-12.05h-37.65Zm100.76,.03h-12.05c-.19,.55-.42,.89-.42,1.23-.03,21.8-.02,43.6-.09,65.4,0,2.44,1.41,2.46,3.14,2.52,6.97,.26,13.94,.54,20.9,.87,3.06,.14,6.12,.4,9.37,.62v-12.1c-6.93-.44-13.72-.87-20.86-1.33v-57.21Zm31.67-.06v71.42c4.05,.32,7.83,.61,11.6,.91v-72.33h-11.6Z"/>
  </g>
</svg>