<?xml version="1.0" encoding="UTF-8"?>
<svg id="Calque_2" data-name="Calque 2" xmlns="http://www.w3.org/2000/svg" viewBox="0 0 91.2 91.21">
  <defs>
    <style>
      .cls-1 {
        fill: hsl(218, 51%, 28%);
      }
    </style>
  </defs>
  <g id="Calque_1-2" data-name="Calque 1">
    <path class="cls-1" d="M48.64,91.21h-6.23c-.22-.06-.44-.14-.67-.17-1.55-.21-3.13-.31-4.66-.62-11.19-2.24-20.43-7.77-27.42-16.8C1.3,62.8-1.6,50.53,.83,37.12c1.79-9.93,6.52-18.4,14.04-25.14C26.12,1.88,39.33-1.83,54.15,.84c11.23,2.02,20.38,7.78,27.43,16.77,4.66,5.93,7.63,12.64,8.91,20.08,.28,1.63,.47,3.27,.71,4.9v6.06c-.06,.26-.13,.51-.17,.77-.2,1.55-.31,3.13-.61,4.66-2.26,11.32-7.89,20.59-17.01,27.68-5.9,4.59-12.57,7.51-19.95,8.76-1.6,.27-3.21,.46-4.82,.69Zm8.09-21.88c2.95,.13,4.88-.3,6.74-1.19,2.09-.99,3.6-2.68,5.2-4.26,1.24-1.23,1.24-2.19,.02-3.43-2.59-2.61-5.19-5.22-7.8-7.82-1.27-1.27-2.23-1.27-3.5,0-1.44,1.46-2.85,2.94-4.31,4.38-1.68,1.65-3.74,1.81-5.64,.45-5.16-3.68-9.65-8.05-13.42-13.15-1.56-2.11-1.41-4.1,.44-5.98,1.51-1.52,3.03-3.01,4.53-4.54,.98-1,1.05-2.02,.1-2.98-2.77-2.82-5.56-5.61-8.37-8.37-.89-.87-1.95-.86-2.85,.01-1.21,1.18-2.46,2.34-3.52,3.65-2.41,2.98-3.35,6.44-2.38,10.16,.63,2.41,1.55,4.81,2.72,7.01,5.49,10.38,13.53,18.22,24.08,23.39,2.79,1.37,5.69,2.49,7.96,2.66Z"/>
  </g>
</svg>