<?xml version="1.0" encoding="UTF-8"?>
<svg id="Calque_2" data-name="Calque 2" xmlns="http://www.w3.org/2000/svg" viewBox="0 0 307.67 383.36">
  <g id="Calque_1-2" data-name="Calque 1">
    <g>
      <path d="M227.95,0c-1.02,5.46-2.84,10.91-2.84,16.37,0,5.32,1.57,10.72,3.03,15.92,.6,2.14,.65,3.67-.43,5.5-4.64,7.88-12.81,13.28-22.91,15.03-8.45-10.66-7.42-28.63,2.17-40.49C212.1,5.98,218.88,2.41,226.45,0c.5,0,1,0,1.5,0Z"/>
      <path d="M240.67,0c5.04,2.54,10.57,4.44,15.04,7.76,10.13,7.52,15.09,22.77,11.51,33.48-1.12-.9-2.16-1.72-3.17-2.57-7.36-6.1-15.81-9.33-25.36-9.16-2.46,.05-3.25-.92-3.91-2.87C231.59,17.3,233.6,8.54,237.68,0,238.67,0,239.67,0,240.67,0Z"/>
      <path d="M178.55,128.3c0,5.76-.04,11.23,0,16.7,.43,49.76,.85,99.53,1.35,149.29,.06,6.19-1.86,11.35-5.99,15.97-19.7,22.03-39.29,44.16-58.94,66.25-5.77,6.48-13.5,8.49-20.91,5.48-7.02-2.86-11.57-9.79-11.28-17.36,.17-4.54,2-8.39,5.01-11.77,17.41-19.56,34.74-39.2,52.24-58.68,2.75-3.06,4.05-6.09,4.06-10.28,.03-18.71,.41-37.41,.66-56.12,.01-.85,0-1.69-.61-2.83-.59,.97-1.22,1.91-1.76,2.91-9.67,17.7-19.38,35.38-28.94,53.13-2.74,5.09-6.62,8.47-12.06,10.49-25.29,9.39-50.51,18.96-75.77,28.41-10.69,4-20.88-.36-24.49-10.32-3.53-9.73,1.42-19.49,12.01-23.48,22.57-8.51,45.19-16.91,67.71-25.54,2.08-.8,4.17-2.64,5.35-4.56,5.07-8.28,9.86-16.73,14.61-25.2,.86-1.54,1.48-3.47,1.45-5.21-.49-30.3-1.13-60.6-1.64-90.9-.04-2.48-.84-3.68-3.19-4.66-15.5-6.45-30.92-13.1-46.38-19.68-8.38-3.57-11.6-9.11-10.08-18.08,4.16-24.65,8.42-49.28,12.68-73.91,1.37-7.9,8.71-13.35,16.22-12.2,8.14,1.24,13.56,8.43,12.19,16.76-3.29,20.13-6.71,40.24-10.29,60.32-.59,3.32,.08,4.76,3.28,6.07,14.16,5.77,28.26,11.7,42.22,17.94,4.64,2.07,8.81,.39,13.07-.28,30.72-4.82,61.5-9.37,92.08-15.02,12.01-2.22,23.55-7,35.29-10.66,10.09-3.14,20.15-6.37,30.24-9.49,8.57-2.64,16.5,1.18,18.99,9.04,2.49,7.88-1.7,15.69-10.22,18.42-21.3,6.82-42.51,13.96-64.03,20.02-10.59,2.98-21.77,3.88-32.69,5.68-6.99,1.15-13.99,2.2-21.47,3.36Z"/>
      <path d="M163.63,65.14c.02,16.75-13.22,29.83-30.23,29.86-16.95,.04-30.17-13.56-30.07-30.93,.09-16.71,13.4-29.61,30.54-29.61,16.91,0,29.75,13.24,29.77,30.68Z"/>
      <path d="M211.37,60.27c2.61-1.15,5.26-2.18,7.77-3.45,7.21-3.65,12.87-8.98,16.5-16.23,1.07-2.13,2.36-2.78,4.66-2.67,9.16,.41,16.4,4.63,22.47,11.14,.61,.66,.9,2.42,.47,3.15-12.1,20.32-38.97,21.04-51.87,8.08Z"/>
    </g>
  </g>
</svg>