<?xml version="1.0" encoding="UTF-8"?>
<svg id="Calque_2" data-name="Calque 2" xmlns="http://www.w3.org/2000/svg" viewBox="0 0 443.33 378.01">
  <defs>
    <style>
      .cls-1 {
        fill: #fff;
      }
    </style>
  </defs>
  <g id="Calque_1-2" data-name="Calque 1">
    <g>
      <path class="cls-1" d="M383.96,198.68c-2.47-9.3-4.78-20.91-8.62-31.99-14.64-42.26-42.34-75-77.03-102.08C257.38,32.65,211.23,11.61,160.34,1.04c-4.39-.91-9.05-2.43-12.47,1.71-3.27,3.96-1.11,8.26,.45,12.26,34.24,87.44,68.51,174.86,102.77,262.28,4.27,10.9,11.51,13.35,21.38,7.17,14.04-8.8,28.05-17.65,42.06-26.49,18.64-11.76,37.27-23.54,55.92-35.29,8.01-5.05,12.15-12.39,13.5-24.01Zm-274.31-3.64c7.08,0,13.42,.12,19.76-.06,2.39-.07,4.96-.42,7.12-1.38,12.11-5.33,24.15-10.83,36.16-16.4,1.63-.76,3.23-1.98,4.33-3.38,2.95-3.77,2.75-8.47-.19-12.39-2.92-3.9-7.77-5.21-12.71-3.04-9.49,4.15-18.85,8.6-28.36,12.69-2.56,1.1-5.48,1.83-8.25,1.87-17.45,.25-34.91,.18-52.36,.41-3.99,.05-8.13,.31-11.93,1.42-7.85,2.29-9.91,7.1-6.69,14.49,8.74,20.04,17.55,40.05,26.3,60.09,4.4,10.08,12.03,15,23.03,14.96,17.74-.07,35.49,.08,53.23-.1,3.44-.03,5.88,.89,8.34,3.32,9.94,9.84,20.02,19.55,30.2,29.15,6.22,5.87,14.72,5.86,20.18,.32,5.59-5.67,5.33-14.4-.94-20.43-12.68-12.21-25.5-24.25-38.26-36.38-3.18-3.02-6.83-4.51-11.3-4.46-11.97,.13-23.95-.08-35.92,.13-2.98,.05-4.22-1.02-5.34-3.59-4.83-11.08-9.88-22.05-14.83-33.07-.51-1.14-.89-2.35-1.56-4.14Zm-56.85-49.37c-.07,11.79,9.27,21.19,21.01,21.15,11.55-.05,20.86-9.31,20.96-20.85,.1-11.54-9.14-20.97-20.67-21.08-11.92-.12-21.24,8.97-21.31,20.78Z"/>
      <path d="M443.33,328.42c-2.6,2.76-4.88,5.94-7.86,8.2-13.2,10.03-26.59,19.81-39.95,29.64-12.35,9.09-26.28,9.52-39.08,1.17-11.83-7.72-23.66-15.43-35.37-23.34-5.98-4.03-11.6-4.1-17.61-.11-11.77,7.81-23.64,15.46-35.51,23.11-13.46,8.67-27.01,8.74-40.57,.21-12.44-7.83-24.85-15.69-37.3-23.52-6.14-3.86-10.37-3.63-16.22,.78-9.33,7.03-18.67,14.05-27.99,21.08-12.89,9.73-26.62,10.32-40.13,1.63-12-7.72-23.94-15.52-35.92-23.27-6.26-4.05-9.4-3.9-15.14,.85-11.55,9.57-23.02,19.24-34.61,28.76-1.96,1.61-4.2,3.21-6.58,3.95-4.84,1.49-9.85-.86-12.19-5.1-2.28-4.14-1.65-9.85,2.16-13.07,13.88-11.73,27.48-23.86,42.08-34.63,10.82-7.98,23.05-7.26,34.49,0,12.05,7.64,23.96,15.49,35.94,23.24,7.55,4.89,10.85,4.77,17.93-.57,9.32-7.04,18.64-14.08,28-21.07,11.97-8.94,26.02-9.57,38.76-1.64,12.72,7.92,25.44,15.86,38.01,24.01,6.22,4.04,11.9,3.91,18.04-.2,11.61-7.78,23.45-15.22,35.15-22.87,13.65-8.92,27.23-8.9,40.83,.09,11.54,7.63,23.1,15.23,34.67,22.82,6.26,4.11,10.14,3.97,16.16-.48,13.33-9.86,26.66-19.72,39.99-29.58,8.57-6.34,14.55-5.17,19.81,3.86v6.06Z"/>
      <path d="M383.96,198.68c-1.35,11.62-5.49,18.96-13.5,24.01-18.65,11.75-37.28,23.53-55.92,35.29-14.01,8.84-28.02,17.69-42.06,26.49-9.87,6.18-17.1,3.74-21.38-7.17C216.83,189.87,182.56,102.44,148.32,15.01c-1.57-4-3.72-8.3-.45-12.26,3.42-4.14,8.08-2.62,12.47-1.71,50.89,10.57,97.04,31.61,137.97,63.57,34.69,27.08,62.39,59.82,77.03,102.08,3.84,11.08,6.15,22.69,8.62,31.99Z"/>
      <path d="M109.65,195.04c.67,1.79,1.04,3,1.56,4.14,4.95,11.02,10,22,14.83,33.07,1.12,2.57,2.36,3.65,5.34,3.59,11.97-.21,23.94,0,35.92-.13,4.48-.05,8.13,1.44,11.3,4.46,12.75,12.13,25.58,24.17,38.26,36.38,6.27,6.03,6.53,14.76,.94,20.43-5.46,5.54-13.96,5.55-20.18-.32-10.18-9.6-20.26-19.31-30.2-29.15-2.45-2.43-4.9-3.35-8.34-3.32-17.74,.18-35.48,.03-53.23,.1-11,.04-18.63-4.88-23.03-14.96-8.75-20.04-17.56-40.04-26.3-60.09-3.22-7.38-1.16-12.2,6.69-14.49,3.8-1.11,7.94-1.36,11.93-1.42,17.45-.23,34.91-.15,52.36-.41,2.77-.04,5.69-.77,8.25-1.87,9.52-4.09,18.88-8.54,28.36-12.69,4.94-2.16,9.79-.85,12.71,3.04,2.93,3.92,3.14,8.61,.19,12.39-1.1,1.41-2.7,2.63-4.33,3.38-12.01,5.57-24.04,11.07-36.16,16.4-2.17,.95-4.73,1.31-7.12,1.38-6.33,.19-12.68,.06-19.76,.06Z"/>
      <path d="M52.8,145.67c.07-11.81,9.38-20.89,21.31-20.78,11.53,.11,20.77,9.54,20.67,21.08-.1,11.54-9.41,20.8-20.96,20.85-11.74,.05-21.08-9.35-21.01-21.15Z"/>
    </g>
  </g>
</svg>