<?xml version="1.0" encoding="UTF-8"?>
<svg id="Calque_2" data-name="Calque 2" xmlns="http://www.w3.org/2000/svg" viewBox="0 0 383.33 303.7">
  <g id="Calque_1-2" data-name="Calque 1">
    <g>
      <path d="M0,222.31c3.12-5.17,6.3-10.3,9.32-15.53,.52-.9,.67-2.23,.49-3.28-1.34-7.45-3.08-14.84-4.16-22.33-1.61-11.08,3.6-17.73,14.78-19.49,3.08-.49,3.56-2.55,3.55-5.17-.04-13.47-.05-26.95,0-40.42,.03-10.15,7.28-18.67,17.07-20.16,10.21-1.55,19.85,4.56,22.64,14.63,.68,2.46,.79,5.17,.72,7.75-.42,15.89,.49,31.63,4.45,47.1,.09,.33,.26,.65,.46,1.12,8.94-3.92,17.81-7.8,27.08-11.86-2.49-8.88-2.8-17.96-.28-27.02,2.51-9.01,6.82-17.02,13.4-24.09,2.75,2.97,5.34,5.77,8.15,8.8-8.93,10.75-13.29,23.2-9.74,37.73,10.99-3.53,21.78-7.22,32.71-10.47,20.18-6,40.68-10.68,61.64-12.88,13.77-1.44,27.61-2.13,41.26,1.34,2.79,.71,5.51,1.71,8.74,2.73-.3-3.21-.72-5.63-.71-8.06,.03-8.85,4.2-15.38,12.12-19.03,30.62-14.11,61.34-28.02,92.02-41.98,7.28-3.31,14.36-2.78,20.15,2.73,6.08,5.79,9.15,13.08,6.58,21.68-1.63,5.46-5.52,8.94-10.6,11.41-28.22,13.67-56.37,27.5-84.61,41.12-4.3,2.07-8.88,4.17-13.52,4.77-3.94,.52-8.16-1.1-12.19-1.76,1.04,4.26,2.5,9.11,3.39,14.07,4.56,25.37-.6,49.08-13.25,71.18-19.85,34.69-50,56.67-87.59,68.66-36.41,11.62-72.65,11.32-107.85-4.73-26.54-12.11-45.75-31.49-55.53-59.47-.11-.32-.43-.58-.65-.86,0-2.74,0-5.49,0-8.23Zm239.18-58.73c3.14-3.86,6.07-6.9,8.34-10.37,4.25-6.48,2.88-9.97-4.56-12.59-1.75-.62-3.56-1.1-5.39-1.44-14.94-2.84-29.82-1.1-44.61,1.07-24.67,3.61-48.6,10.28-72.13,18.43-2.64,.91-5.23,1.95-8.14,3.04,2.04,2.96,3.79,5.5,5.67,8.23-3.13,2.58-6.14,5.06-9.37,7.73-2.89-4.13-5.5-7.86-8.21-11.71-9.39,4.16-18.54,8.22-27.85,12.35,8.93,21.89,23.63,36.39,46.46,41.74,1.93,.45,4.28,.52,6.1-.15,18.28-6.8,36.5-13.75,54.68-20.8,2-.78,3.88-2.25,5.4-3.81,9.75-10.08,15.25-22.24,17.34-36.05,1.29-8.53,8.21-15.04,16.27-15.49,9.38-.51,16.9,4.86,19.16,13.8,.41,1.62,.48,3.33,.85,6.04Zm-139.44,63.7c-6.89-5.49-14.44-10.29-20.48-16.54-17.27-17.87-23.68-40.52-25.98-64.51-.93-9.65-.69-19.41-.83-29.13-.05-3.7-1.25-6.63-4.59-8.33-5.88-2.99-11.88,1.3-11.92,8.59-.07,13.34-.01,26.69-.03,40.03,0,9.34-5.19,15.21-14.46,16.22-2.58,.28-3.87,1.43-3.76,4.06,.63,14.86,4.31,28.76,13.12,40.97,6.83,9.47,16.45,14.58,27.85,15.43,5.71,.42,11.61-1.05,17.35-2.06,8.16-1.43,16.26-3.23,23.71-4.74Zm109.11-42.69c3.65-2.28,7.36-4.81,11.27-6.96,2.89-1.58,4.41-3.91,5.08-6.95,.58-2.67,1.13-5.36,1.48-8.06,.42-3.29-1.87-6.26-5.03-6.82-2.72-.48-5.76,1.41-6.55,4.39-2.15,8.09-4.17,16.22-6.26,24.39Zm63.91-53.16c5.58-.79,9-4.44,8.64-9.21-.34-4.56-4.43-8.44-8.92-8.44-4.51,0-8.08,3.38-8.35,7.93,5.14-2.62,7.78-2.58,10.05,.18,2.11,2.57,1.7,5.39-1.42,9.54ZM29.02,235.37c-4.67-5.82-9-11.21-13.43-16.72-.46,.64-1.01,1.3-1.45,2.03-3.59,5.88-2.54,9.46,3.85,11.81,3.44,1.27,7.11,1.89,11.03,2.89Z"/>
      <path d="M113.69,71.67h-11.98c.84-16.23,9.43-28.31,19.57-40.05,2.83,3.15,5.43,6.05,8.16,9.1-7.45,8.69-14.51,18.27-15.75,30.95Z"/>
      <path d="M107.78,12.08c-.04,6.75-5.36,11.93-12.18,11.86-6.7-.07-11.86-5.46-11.76-12.28C83.94,5.09,89.17,0,95.83,0c6.77,0,11.99,5.29,11.95,12.08Z"/>
      <path d="M41.92,53.76c.04-6.77,5.32-11.91,12.18-11.84,6.72,.07,11.86,5.44,11.76,12.28-.1,6.55-5.37,11.67-12,11.66-6.76-.01-11.98-5.3-11.94-12.1Z"/>
      <path d="M23.88,72.09v11.44H12.24v-11.44h11.64Z"/>
      <path d="M78.09,77.92h11.42v11.62h-11.42v-11.62Z"/>
      <path d="M83.67,132.01v11.49h-11.5v-11.49h11.5Z"/>
      <path d="M119.45,197.52h-11.37v-11.64h11.37v11.64Z"/>
      <path d="M41.7,203.6c1.77,0,2.89,.12,3.98-.02,5.15-.65,8.44,.29,11,6.03,2.29,5.13,7.61,8.91,12.04,13.78-1.71,2.57-3.86,5.81-6.16,9.26-10.35-7.34-18.85-15.5-20.86-29.04Z"/>
    </g>
  </g>
</svg>