<?xml version="1.0" encoding="UTF-8"?>
<svg id="Calque_2" data-name="Calque 2" xmlns="http://www.w3.org/2000/svg" viewBox="0 0 77.51 77.5">
  <g id="Calque_1-2" data-name="Calque 1">
    <g>
      <path d="M0,41.34c0-1.71,0-3.43,0-5.14,.05-.24,.1-.48,.15-.72,.41-2.35,.63-4.75,1.26-7.04C7.12,7.8,28.49-4.29,49.04,1.41c18.75,5.21,30.82,23.52,28.09,42.68-1.32,9.21-5.42,17-12.28,23.29-5.51,5.05-11.98,8.25-19.37,9.52-1.38,.24-2.78,.4-4.17,.6h-5.14c-.95-.12-1.89-.21-2.84-.35-9.06-1.37-16.77-5.34-23.01-12.06C5.16,59.53,1.89,53,.6,45.5,.36,44.12,.2,42.73,0,41.34Zm72.65-2.58c0-18.74-15.18-33.91-33.92-33.91-18.74,0-33.92,15.18-33.91,33.91,0,18.74,15.18,33.91,33.92,33.91,18.74,0,33.92-15.18,33.91-33.92Z"/>
      <path d="M42.93,24.47c1.23-.12,2.33-.2,3.43-.35,.86-.12,1.24-.61,1.17-1.37-.06-.69-.55-1.11-1.39-1.07-1.76,.08-3.52,.29-5.28,.28-3.4-.03-6.8-.17-10.2-.27-.28,0-.56-.04-.83,0-.67,.1-1.03,.55-1.06,1.19-.03,.65,.3,1.12,.99,1.22,.92,.12,1.85,.24,2.78,.29,.43,.02,.61,.19,.75,.57,1.46,4.04,2.94,8.08,4.4,12.12,.09,.24,.11,.55,.03,.78-2.12,6.42-4.26,12.83-6.39,19.24-.03,.09-.09,.16-.2,.37-3.72-11.06-7.39-21.99-11.09-32.99,1.18-.11,2.25-.19,3.32-.33,.92-.12,1.39-.65,1.31-1.35-.08-.76-.64-1.16-1.6-1.12-2.97,.12-5.94,.24-8.91,.36-.25,0-.5-.03-.77-.04C22.34,7.2,44.78,2.96,59.12,16.11c-.8,.24-1.69,.36-2.44,.75-2.33,1.21-3.42,3.94-2.52,6.61,.51,1.51,1.31,2.93,2.1,4.32,1.12,1.95,2.2,3.9,2.73,6.11,.64,2.67,.4,5.31-.36,7.9-1.47,5.01-2.99,10.01-4.49,15.02-.03,.09-.09,.18-.2,.38-3.69-10.96-7.34-21.82-11.01-32.74Z"/>
      <path d="M30.09,68.05c3.06-8.88,6.08-17.67,9.18-26.66,3.23,8.84,6.39,17.49,9.57,26.2-6.19,2.1-12.41,2.3-18.75,.46Z"/>
      <path d="M25.4,66.16C11.11,59.55,3.95,41.65,10.88,26.36c4.86,13.31,9.68,26.51,14.53,39.8Z"/>
      <path d="M65.56,24.38c7.28,12.43,4.06,31.7-11.41,40.7,.08-.29,.12-.53,.2-.76,3.31-9.54,6.64-19.07,9.91-28.62,1.22-3.56,1.73-7.23,1.28-11-.01-.09,0-.18,.01-.32Z"/>
    </g>
  </g>
</svg>